<svg width="16" height="16" viewBox="0 0 16 16" fill="none" xmlns="http://www.w3.org/2000/svg">
<path d="M12.6667 8.66659V7.33325C11.6667 7.33325 10.6 6.79992 9.93337 6.13325L9.06671 5.13325C9.00004 5.06659 8.86671 4.93325 8.66671 4.86659C8.46671 4.73325 8.13337 4.66659 7.86671 4.66659C7.20004 4.73325 6.66671 5.33325 6.66671 6.06659V9.99992C6.66671 10.7333 7.26671 11.3333 8.00004 11.3333H11.3334V14.6666H12.6667V10.9999C12.6667 10.2666 12.0667 9.66659 11.3334 9.66659H9.33337V7.39992C10.2 8.06659 11.4667 8.66659 12.6667 8.66659ZM8.53337 11.9999H9.93337C9.60004 13.5333 8.26671 14.6666 6.66671 14.6666C4.80004 14.6666 3.33337 13.1999 3.33337 11.3333C3.33337 9.73325 4.46671 8.39992 6.00004 8.06659V9.46659C5.20004 9.73325 4.66671 10.4666 4.66671 11.3333C4.66671 12.4666 5.53337 13.3333 6.66671 13.3333C7.53337 13.3333 8.26671 12.7999 8.53337 11.9999ZM8.00004 3.99992C7.26671 3.99992 6.66671 3.39992 6.66671 2.66659C6.66671 1.93325 7.26671 1.33325 8.00004 1.33325C8.73337 1.33325 9.33337 1.93325 9.33337 2.66659C9.33337 3.39992 8.73337 3.99992 8.00004 3.99992Z" fill="#212121"/>
</svg>
