<svg width="16" height="16" viewBox="0 0 16 16" fill="none" xmlns="http://www.w3.org/2000/svg">
<path d="M11 3.66675H2.53331C1.86665 3.66675 1.33331 4.20008 1.33331 4.93341V10.5334H2.53331C2.53331 11.5334 3.33331 12.4001 4.33331 12.4001C5.33331 12.4001 6.13331 11.5334 6.13331 10.5334H9.46665C9.46665 11.5334 10.2666 12.4001 11.2666 12.4001C12.2666 12.4001 13.0666 11.5334 13.0666 10.5334H14.6666V7.46675L11 3.66675ZM2.53331 7.40008V4.93341H4.93331V7.40008H2.53331ZM4.33331 11.4001C3.86665 11.4001 3.39998 11.0001 3.39998 10.4667C3.39998 10.0001 3.79998 9.53341 4.33331 9.53341C4.86665 9.53341 5.26665 10.0001 5.26665 10.4667C5.26665 11.0001 4.86665 11.4001 4.33331 11.4001ZM8.59998 7.40008H6.19998V4.93341H8.59998V7.40008ZM11.3333 11.4001C10.8666 11.4001 10.4 11.0001 10.4 10.4667C10.4 10.0001 10.8 9.53341 11.3333 9.53341C11.8666 9.53341 12.2666 10.0001 12.2666 10.4667C12.2666 11.0001 11.8 11.4001 11.3333 11.4001ZM9.79998 7.40008V4.93341H10.4L12.8 7.40008H9.79998Z" fill="#212121"/>
</svg>
