<svg width="18" height="18" viewBox="0 0 18 18" fill="none" xmlns="http://www.w3.org/2000/svg">
<path d="M12.7943 11.6407C13.1451 11.4012 13.5566 11.2658 13.9812 11.2503C14.4057 11.2349 14.826 11.3399 15.1934 11.5533C15.5607 11.7667 15.8601 12.0798 16.057 12.4563C16.2539 12.8328 16.3401 13.2573 16.3057 13.6807C15.4059 13.9953 14.4501 14.1176 13.5 14.04C13.4971 13.19 13.2523 12.3576 12.7943 11.6415C12.3877 11.0038 11.8268 10.479 11.1636 10.1156C10.5004 9.75223 9.75625 9.56199 9 9.5625C8.24388 9.56211 7.49987 9.75242 6.8368 10.1158C6.17372 10.4792 5.613 11.0039 5.2065 11.6415M13.4993 14.0392L13.5 14.0625C13.5 14.2312 13.491 14.3977 13.4722 14.562C12.1113 15.3428 10.5691 15.7525 9 15.75C7.3725 15.75 5.84475 15.318 4.52775 14.562C4.50847 14.3884 4.4992 14.2139 4.5 14.0392M4.5 14.0392C3.55022 14.1197 2.59493 13.9978 1.69575 13.6815C1.66151 13.2582 1.7478 12.8338 1.94462 12.4574C2.14145 12.0811 2.44078 11.7681 2.808 11.5547C3.17523 11.3413 3.59535 11.2362 4.01979 11.2516C4.44423 11.267 4.85566 11.4021 5.2065 11.6415M4.5 14.0392C4.50269 13.1893 4.74872 12.3577 5.2065 11.6415M11.25 5.0625C11.25 5.65924 11.0129 6.23153 10.591 6.65349C10.169 7.07545 9.59674 7.3125 9 7.3125C8.40326 7.3125 7.83097 7.07545 7.40901 6.65349C6.98705 6.23153 6.75 5.65924 6.75 5.0625C6.75 4.46576 6.98705 3.89347 7.40901 3.47151C7.83097 3.04955 8.40326 2.8125 9 2.8125C9.59674 2.8125 10.169 3.04955 10.591 3.47151C11.0129 3.89347 11.25 4.46576 11.25 5.0625ZM15.75 7.3125C15.75 7.53411 15.7064 7.75354 15.6215 7.95828C15.5367 8.16302 15.4124 8.34904 15.2557 8.50574C15.099 8.66244 14.913 8.78674 14.7083 8.87155C14.5035 8.95635 14.2841 9 14.0625 9C13.8409 9 13.6215 8.95635 13.4167 8.87155C13.212 8.78674 13.026 8.66244 12.8693 8.50574C12.7126 8.34904 12.5883 8.16302 12.5035 7.95828C12.4186 7.75354 12.375 7.53411 12.375 7.3125C12.375 6.86495 12.5528 6.43572 12.8693 6.11926C13.1857 5.80279 13.6149 5.625 14.0625 5.625C14.5101 5.625 14.9393 5.80279 15.2557 6.11926C15.5722 6.43572 15.75 6.86495 15.75 7.3125ZM5.625 7.3125C5.625 7.53411 5.58135 7.75354 5.49655 7.95828C5.41174 8.16302 5.28744 8.34904 5.13074 8.50574C4.97404 8.66244 4.78802 8.78674 4.58328 8.87155C4.37854 8.95635 4.15911 9 3.9375 9C3.71589 9 3.49646 8.95635 3.29172 8.87155C3.08699 8.78674 2.90096 8.66244 2.74426 8.50574C2.58756 8.34904 2.46326 8.16302 2.37845 7.95828C2.29365 7.75354 2.25 7.53411 2.25 7.3125C2.25 6.86495 2.42779 6.43572 2.74426 6.11926C3.06073 5.80279 3.48995 5.625 3.9375 5.625C4.38505 5.625 4.81428 5.80279 5.13074 6.11926C5.44721 6.43572 5.625 6.86495 5.625 7.3125Z" stroke="#3264FF" stroke-width="1.5" stroke-linecap="round" stroke-linejoin="round"/>
</svg>
