<svg width="16" height="16" viewBox="0 0 16 16" fill="none" xmlns="http://www.w3.org/2000/svg">
<g clip-path="url(#clip0_17_21315)">
<path d="M7.5902 11.9376C7.6971 11.6525 7.73274 11.3318 7.5902 11.0467C7.41203 10.6191 6.98441 10.334 6.55679 10.334C6.41425 10.334 6.30735 10.3697 6.16481 10.4053L3.91982 11.2606V8.37414C3.91982 8.16033 3.81292 7.98216 3.63474 7.87522C3.56347 7.83959 3.45657 7.80396 3.3853 7.80396C3.2784 7.80396 3.17149 7.83959 3.06459 7.91086L0.605791 9.58569C0.213808 9.83516 0 10.2984 0 10.7616V13.3274C0 14.0044 0.498886 14.6102 1.17595 14.7171L2.35189 14.9309C2.42316 14.9309 2.53007 14.9666 2.60134 14.9666C3.17149 14.9666 3.70601 14.6102 3.91982 14.0401L4.06236 13.6481L6.98441 12.579C7.23385 12.4365 7.4833 12.2227 7.5902 11.9376Z" fill="#212121"/>
<path d="M11.6169 1.03345C9.47886 1.03345 7.69713 2.56574 7.30514 4.59692L5.70158 4.38311C5.27396 4.31184 4.88198 4.63256 4.84635 5.02454L4.52563 7.30516C4.77508 7.59024 4.95325 7.98222 4.95325 8.3742V9.79959L5.84412 9.47888C6.09356 9.40758 6.34301 9.33629 6.59245 9.33629C7.48332 9.33629 8.26728 9.87081 8.588 10.6904C8.80178 11.225 8.80178 11.8307 8.55236 12.3652C8.30295 12.8998 7.8753 13.3274 7.34078 13.5056L5.77285 14.0757L9.65707 14.6103C10.0847 14.6815 10.4766 14.3608 10.5123 13.9688L11.0825 9.79957C11.2606 9.8352 11.4388 9.8352 11.617 9.8352C14.0401 9.8352 16 7.87526 16 5.4521C16 3.02899 14.0401 1.03345 11.6169 1.03345ZM10.9755 5.09581L10.2984 4.9889C10.4766 4.41875 11.0111 3.99113 11.6526 3.99113C12.4365 3.99113 13.0779 4.63256 13.0779 5.41652C13.0779 6.20049 12.4365 6.84191 11.6526 6.84191C11.6169 6.84191 11.5813 6.84191 11.5457 6.84191L11.6526 5.98668C11.6882 5.52343 11.3675 5.16708 10.9755 5.09581ZM11.6169 8.76619C11.4744 8.76619 11.3675 8.76619 11.225 8.73055L11.3319 7.83968C11.4031 7.83968 11.51 7.83968 11.5813 7.83968C12.9354 7.83968 14.0045 6.73501 14.0045 5.41652C14.0045 4.0624 12.8998 2.99336 11.5813 2.99336C10.441 2.99336 9.44323 3.81296 9.19379 4.882L8.30292 4.7751C8.62363 3.2428 9.97775 2.10249 11.5813 2.10249C13.4343 2.10249 14.931 3.59915 14.931 5.45216C14.931 7.30516 13.47 8.76619 11.6169 8.76619Z" fill="#212121"/>
</g>
<defs>
<clipPath id="clip0_17_21315">
<rect width="16" height="16" fill="white"/>
</clipPath>
</defs>
</svg>
