<svg width="18" height="18" viewBox="0 0 18 18" fill="none" xmlns="http://www.w3.org/2000/svg">
<path d="M17.9535 3.94719C17.8724 3.53846 17.6912 3.16443 17.4381 2.85544C17.3847 2.78812 17.3289 2.72783 17.2685 2.66753C16.8201 2.2169 16.1907 1.93579 15.5032 1.93579H2.49683C1.80928 1.93579 1.18216 2.2169 0.731637 2.66753C0.671344 2.72783 0.615586 2.78812 0.562078 2.85544C0.308848 3.1644 0.127617 3.53846 0.0487266 3.94719C0.0163125 4.10493 0 4.26795 0 4.43276V13.5675C0 13.918 0.0743203 14.2548 0.206859 14.559C0.329801 14.8494 0.511066 15.1122 0.731602 15.3325C0.7875 15.3883 0.843012 15.4395 0.903586 15.4905C1.33552 15.8482 1.89306 16.0642 2.49683 16.0642H15.5032C16.1072 16.0642 16.6671 15.8482 17.0966 15.4882C17.157 15.4395 17.2127 15.3883 17.2685 15.3325C17.4889 15.1122 17.6702 14.8494 17.7956 14.559V14.5568C17.9281 14.2526 18 13.918 18 13.5676V4.43276C18 4.26795 17.9839 4.10493 17.9535 3.94719ZM1.63508 3.57087C1.85815 3.34805 2.15771 3.21316 2.49683 3.21316H15.5032C15.8423 3.21316 16.1445 3.34805 16.3649 3.57087C16.4044 3.61056 16.4415 3.65479 16.4743 3.69874L9.65728 9.63997C9.46927 9.80474 9.23702 9.88613 9 9.88613C8.76537 9.88613 8.53327 9.80474 8.34275 9.63997L1.52831 3.69621C1.55848 3.65226 1.59564 3.61056 1.63508 3.57087ZM1.27737 13.5675V5.01805L6.21063 9.3217L1.27986 13.6208C1.27737 13.6045 1.27737 13.5861 1.27737 13.5675ZM15.5032 14.7866H2.49683C2.27602 14.7866 2.0694 14.7286 1.89306 14.6266L7.09541 10.0929L7.58109 10.5154C7.98754 10.8686 8.49614 11.0474 9 11.0474C9.50646 11.0474 10.015 10.8686 10.4214 10.5154L10.9069 10.0929L16.1072 14.6266C15.9306 14.7286 15.724 14.7866 15.5032 14.7866ZM16.7226 13.5675C16.7226 13.5861 16.7226 13.6045 16.7202 13.6208L11.7895 9.32419L16.7226 5.02033V13.5675Z" fill="#3264FF"/>
</svg>
