<svg width="18" height="18" viewBox="0 0 18 18" fill="none" xmlns="http://www.w3.org/2000/svg">
<path d="M9 2.25C11.0663 2.25 13.0913 2.424 15.0623 2.7585C15.462 2.826 15.75 3.1755 15.75 3.5805V4.3635C15.75 4.58511 15.7064 4.80455 15.6216 5.00928C15.5367 5.21402 15.4124 5.40005 15.2557 5.55675L11.1818 9.63075C11.0251 9.78745 10.9008 9.97348 10.8159 10.1782C10.7311 10.383 10.6875 10.6024 10.6875 10.824V13.0193C10.6876 13.3327 10.6003 13.64 10.4355 13.9067C10.2707 14.1734 10.0349 14.3888 9.7545 14.529L7.3125 15.75V10.824C7.3125 10.6024 7.26886 10.383 7.18405 10.1782C7.09925 9.97348 6.97495 9.78745 6.81825 9.63075L2.74425 5.55675C2.58755 5.40005 2.46325 5.21402 2.37845 5.00928C2.29364 4.80455 2.25 4.58511 2.25 4.3635V3.5805C2.25 3.1755 2.538 2.826 2.93775 2.7585C4.94068 2.41939 6.96857 2.24929 9 2.25Z" stroke="white" stroke-width="1.5" stroke-linecap="round" stroke-linejoin="round"/>
</svg>
