<svg width="16" height="16" viewBox="0 0 16 16" fill="none" xmlns="http://www.w3.org/2000/svg">
<path d="M13.7334 9.93325L14.6667 8.99992L13.7334 7.99992L11.3334 10.3999L5.60004 4.66659L8.00004 2.26659L7.06671 1.33325L6.06671 2.26659L5.13337 1.33325L3.73337 2.73325L2.73337 1.79992L1.80004 2.73325L2.73337 3.66659L1.33337 5.13325L2.26671 6.06659L1.33337 7.06659L2.26671 7.99992L4.66671 5.59992L10.4 11.3333L8.00004 13.7333L8.93337 14.6666L9.86671 13.7333L10.8 14.6666L12.2 13.2666L13.1334 14.1999L14.0667 13.2666L13.1334 12.3333L14.5334 10.9333L13.7334 9.93325Z" fill="#212121"/>
</svg>
