<svg width="16" height="16" viewBox="0 0 16 16" fill="none" xmlns="http://www.w3.org/2000/svg">
<g clip-path="url(#clip0_17_21411)">
<path d="M14.8344 3.67784C14.0529 1.4104 11.5062 0.353525 10.4507 0.461057C10.4133 1.73106 9.38597 2.74993 8.11966 2.75134C6.85331 2.75134 5.82463 1.73359 5.78578 0.4639C3.12244 0.758931 2.45044 1.6694 1.80206 3.68518L1.80181 3.68743C1.26097 6.13987 0 7.36309 0 7.36309L2.90569 8.47346L3.72406 7.18124C3.71141 7.84762 3.48309 10.3893 0.9355 13.7586C0.9355 13.7586 5.93269 16.3532 11.3874 15.291C12.3026 12.545 12.7075 9.05002 12.8035 7.22431L13.2359 9.19418L16 8.94868C16 7.29102 15.3452 5.15928 14.8344 3.67784Z" fill="#212121"/>
</g>
<defs>
<clipPath id="clip0_17_21411">
<rect width="16" height="16" fill="white"/>
</clipPath>
</defs>
</svg>
