<svg width="19" height="18" viewBox="0 0 19 18" fill="none" xmlns="http://www.w3.org/2000/svg">
<path fill-rule="evenodd" clip-rule="evenodd" d="M6.62075 1.93477C6.81611 1.83702 7.03155 1.78613 7.25 1.78613C7.46845 1.78613 7.68389 1.83702 7.87925 1.93477L11.624 3.80827C11.7035 3.84727 11.7965 3.84727 11.876 3.80827L14.7778 2.35702C14.9921 2.24992 15.2303 2.19937 15.4697 2.21019C15.7091 2.22101 15.9418 2.29283 16.1456 2.41883C16.3495 2.54484 16.5178 2.72085 16.6345 2.93016C16.7512 3.13946 16.8125 3.37513 16.8125 3.61477V12.9785C16.8125 13.511 16.5117 13.9985 16.0347 14.2363L12.3785 16.064C12.1833 16.1615 11.9682 16.2123 11.75 16.2123C11.5318 16.2123 11.3167 16.1615 11.1215 16.064L7.376 14.1913C7.33689 14.1717 7.29375 14.1615 7.25 14.1615C7.20625 14.1615 7.16311 14.1717 7.124 14.1913L4.223 15.6425C4.00859 15.7498 3.77031 15.8005 3.5308 15.7898C3.29129 15.779 3.05851 15.7072 2.85455 15.5812C2.6506 15.4552 2.48225 15.2791 2.3655 15.0697C2.24875 14.8603 2.18748 14.6245 2.1875 14.3848V5.02102C2.1875 4.48852 2.48825 4.00102 2.9645 3.76327L6.62075 1.93552V1.93477ZM7.25 4.49977C7.39918 4.49977 7.54226 4.55904 7.64775 4.66453C7.75324 4.77001 7.8125 4.91309 7.8125 5.06227V11.2498C7.8125 11.399 7.75324 11.542 7.64775 11.6475C7.54226 11.753 7.39918 11.8123 7.25 11.8123C7.10082 11.8123 6.95774 11.753 6.85225 11.6475C6.74676 11.542 6.6875 11.399 6.6875 11.2498V5.06227C6.6875 4.91309 6.74676 4.77001 6.85225 4.66453C6.95774 4.55904 7.10082 4.49977 7.25 4.49977ZM12.3125 6.74977C12.3125 6.60059 12.2532 6.45751 12.1477 6.35203C12.0423 6.24654 11.8992 6.18727 11.75 6.18727C11.6008 6.18727 11.4577 6.24654 11.3523 6.35203C11.2468 6.45751 11.1875 6.60059 11.1875 6.74977V12.9373C11.1875 13.0865 11.2468 13.2295 11.3523 13.335C11.4577 13.4405 11.6008 13.4998 11.75 13.4998C11.8992 13.4998 12.0423 13.4405 12.1477 13.335C12.2532 13.2295 12.3125 13.0865 12.3125 12.9373V6.74977Z" fill="#3264FF"/>
</svg>
