<svg width="16" height="16" viewBox="0 0 16 16" fill="none" xmlns="http://www.w3.org/2000/svg">
<path d="M2.24003 0.639893C1.71128 0.639893 1.28003 1.07114 1.28003 1.59989V14.0799C1.28003 14.6086 1.71128 15.0399 2.24003 15.0399H2.56003V15.3599H4.48003V15.0399H11.52V15.3599H13.44V15.0399H13.76C14.2888 15.0399 14.72 14.6086 14.72 14.0799V1.59989C14.72 1.07114 14.2888 0.639893 13.76 0.639893H2.24003ZM10.24 2.55989H11.2C11.3763 2.55989 11.52 2.70364 11.52 2.87989V4.79989H9.92003V2.87989C9.92003 2.70364 10.0638 2.55989 10.24 2.55989ZM4.48003 5.43989H6.08003C6.25628 5.43989 6.40003 5.58364 6.40003 5.75989V6.71989H4.16003V5.75989C4.16003 5.58364 4.30378 5.43989 4.48003 5.43989ZM9.92003 5.43989H11.52V5.75989L11.9838 6.37739C12.305 6.80739 12.48 7.33114 12.48 7.86864V8.31989H9.60003V8.95989H12.48V10.8799H9.60003V11.5199H12.48V12.7999C12.48 12.9761 12.3363 13.1199 12.16 13.1199H9.28003C9.10378 13.1199 8.96003 12.9761 8.96003 12.7999V7.86864C8.96003 7.33114 9.13503 6.80739 9.45628 6.37739L9.92003 5.75989V5.43989ZM4.16003 7.35989H6.40003C6.75378 7.35989 7.04003 7.64614 7.04003 7.99989V8.63989C7.04003 8.75739 7.00628 8.86489 6.95003 8.95989H4.80003V9.59989H6.95128C7.00628 9.69489 7.04003 9.80239 7.04003 9.91989V10.5599C7.04003 10.6774 7.00628 10.7849 6.95003 10.8799H4.80003V11.5199H6.95128C7.00628 11.6149 7.04003 11.7224 7.04003 11.8399V12.4799C7.04003 12.8336 6.75378 13.1199 6.40003 13.1199H4.16003C3.80628 13.1199 3.52003 12.8336 3.52003 12.4799V11.8399C3.52003 11.7224 3.55378 11.6149 3.60878 11.5199H4.16003V10.8799H3.61003C3.55378 10.7849 3.52003 10.6774 3.52003 10.5599V9.91989C3.52003 9.80239 3.55378 9.69489 3.60878 9.59989H4.16003V8.95989H3.61003C3.55378 8.86489 3.52003 8.75739 3.52003 8.63989V7.99989C3.52003 7.64614 3.80628 7.35989 4.16003 7.35989Z" fill="#212121"/>
</svg>
