<svg width="16" height="16" viewBox="0 0 16 16" fill="none" xmlns="http://www.w3.org/2000/svg">
<path d="M1.33331 3.66667L5.99998 8.33333H1.33331V10.3333H7.99998L12.6666 15L13.5333 14.2L2.19998 2.86667L1.33331 3.66667ZM13.6666 8.33333H14.6666V10.3333H13.6666V8.33333ZM12 8.33333H13V10.3333H12V8.33333ZM12.6 2.93333C13 2.53333 13.2666 1.93333 13.2666 1.33333H12.2666C12.2666 2 11.7333 2.53333 11 2.53333V3.53333C12.4666 3.53333 13.6666 4.73333 13.6666 6.26667V7.66667H14.6666V6.26667C14.6666 4.8 13.8 3.53333 12.6 2.93333ZM9.66665 5.46667H10.6666C11.4 5.46667 12 5.93333 12 6.86667V7.66667H13V6.6C13 5.4 11.9333 4.46667 10.6666 4.46667H9.66665C8.99998 4.46667 8.39998 3.8 8.39998 3.13333C8.39998 2.46667 8.93331 1.93333 9.66665 1.93333V1C8.39998 1 7.39998 2 7.39998 3.2C7.39998 4.4 8.39998 5.46667 9.66665 5.46667ZM11.3333 10.2667V8.33333H9.39998L11.3333 10.2667Z" fill="#212121"/>
</svg>
