<svg width="18" height="18" viewBox="0 0 18 18" fill="none" xmlns="http://www.w3.org/2000/svg">
<path d="M6.1875 14.0626C6.1875 14.361 6.06897 14.6471 5.85799 14.8581C5.64702 15.0691 5.36087 15.1876 5.0625 15.1876C4.76413 15.1876 4.47798 15.0691 4.267 14.8581C4.05602 14.6471 3.9375 14.361 3.9375 14.0626M6.1875 14.0626C6.1875 13.7642 6.06897 13.4781 5.85799 13.2671C5.64702 13.0561 5.36087 12.9376 5.0625 12.9376C4.76413 12.9376 4.47798 13.0561 4.267 13.2671C4.05602 13.4781 3.9375 13.7642 3.9375 14.0626M6.1875 14.0626H10.6875M3.9375 14.0626H2.53125C2.30747 14.0626 2.09286 13.9737 1.93463 13.8155C1.77639 13.6573 1.6875 13.4426 1.6875 13.2189V10.6876M10.6875 14.0626H12.375M10.6875 14.0626V10.6876M1.6875 10.6876V4.96137C1.68631 4.75599 1.76135 4.55748 1.89809 4.40425C2.03484 4.25101 2.22356 4.15396 2.42775 4.13187C4.92753 3.87239 7.44746 3.87239 9.94725 4.13187C10.371 4.17537 10.6875 4.53537 10.6875 4.96137V5.67987M1.6875 10.6876H10.6875M14.625 14.0626C14.625 14.361 14.5065 14.6471 14.2955 14.8581C14.0845 15.0691 13.7984 15.1876 13.5 15.1876C13.2016 15.1876 12.9155 15.0691 12.7045 14.8581C12.4935 14.6471 12.375 14.361 12.375 14.0626M14.625 14.0626C14.625 13.7642 14.5065 13.4781 14.2955 13.2671C14.0845 13.0561 13.7984 12.9376 13.5 12.9376C13.2016 12.9376 12.9155 13.0561 12.7045 13.2671C12.4935 13.4781 12.375 13.7642 12.375 14.0626M14.625 14.0626H15.4687C15.9345 14.0626 16.3155 13.6846 16.2862 13.2196C16.1355 10.7428 15.3014 8.35629 13.8765 6.32486C13.7408 6.13458 13.5636 5.97763 13.3583 5.86589C13.153 5.75415 12.925 5.69054 12.6915 5.67987H10.6875M10.6875 5.67987V10.6876" stroke="#004E98" stroke-width="1.5" stroke-linecap="round" stroke-linejoin="round"/>
</svg>
