<svg width="16" height="16" viewBox="0 0 16 16" fill="none" xmlns="http://www.w3.org/2000/svg">
<path d="M3.00004 7.66675C2.06671 7.66675 1.33337 6.93341 1.33337 6.00008C1.33337 5.06675 2.06671 4.33341 3.00004 4.33341C3.93337 4.33341 4.66671 5.06675 4.66671 6.00008C4.66671 6.93341 3.93337 7.66675 3.00004 7.66675ZM6.00004 5.00008C5.06671 5.00008 4.33337 4.26675 4.33337 3.33341C4.33337 2.40008 5.06671 1.66675 6.00004 1.66675C6.93337 1.66675 7.66671 2.40008 7.66671 3.33341C7.66671 4.26675 6.93337 5.00008 6.00004 5.00008ZM10 5.00008C9.06671 5.00008 8.33337 4.26675 8.33337 3.33341C8.33337 2.40008 9.06671 1.66675 10 1.66675C10.9334 1.66675 11.6667 2.40008 11.6667 3.33341C11.6667 4.26675 10.9334 5.00008 10 5.00008ZM13 7.66675C12.0667 7.66675 11.3334 6.93341 11.3334 6.00008C11.3334 5.06675 12.0667 4.33341 13 4.33341C13.9334 4.33341 14.6667 5.06675 14.6667 6.00008C14.6667 6.93341 13.9334 7.66675 13 7.66675ZM11.5334 9.60008C12.4 10.4667 13.4667 11.4667 13.2667 12.8001C13.0667 13.4667 12.6 14.1334 11.7334 14.3334C11.2667 14.4001 9.66671 14.0667 8.06671 14.0667H7.93337C6.26671 14.0667 4.73337 14.4667 4.26671 14.3334C3.40004 14.1334 2.93337 13.4667 2.73337 12.8001C2.53337 11.4667 3.60004 10.4667 4.46671 9.60008C5.06671 8.93341 5.53337 8.33342 6.13337 7.66675C6.46671 7.33342 6.86671 6.93341 7.33337 6.80008C7.40004 6.80008 7.46671 6.73342 7.53337 6.73342C7.66671 6.66675 7.80004 6.66675 8.00004 6.66675H8.53337C8.60004 6.66675 8.66671 6.73342 8.73337 6.73342C9.20004 6.86675 9.60004 7.26675 9.93337 7.60008C10.4667 8.33341 11 8.86675 11.5334 9.60008Z" fill="#212121"/>
</svg>
