<svg width="18" height="18" viewBox="0 0 18 18" fill="none" xmlns="http://www.w3.org/2000/svg">
<path d="M13.4512 0.964355C13.8381 0.964355 14.1434 1.08748 14.367 1.33373C14.5747 1.56239 14.6859 1.86688 14.7008 2.24721L14.7025 2.33632V15.6638C14.7025 16.0809 14.5907 16.4139 14.367 16.6626C14.1594 16.8936 13.8813 17.0174 13.5328 17.0339L13.4512 17.0358H4.46562C4.07867 17.0358 3.77337 16.9114 3.54974 16.6626C3.34208 16.4317 3.23084 16.1281 3.21601 15.7519L3.21429 15.6638V2.33632C3.21429 1.91418 3.32611 1.57998 3.54974 1.33373C3.7574 1.10507 4.03547 0.982573 4.38395 0.96624L4.46562 0.964355H13.4512ZM11.0615 12.7993H6.92308C6.75222 12.7993 6.61402 12.8508 6.50849 12.9539C6.41468 13.0454 6.36256 13.1658 6.35214 13.3149L6.35018 13.3722V15.8221H11.6345V13.3722C11.6345 13.1963 11.5829 13.0569 11.4799 12.9539C11.3883 12.8623 11.268 12.8114 11.1188 12.8012L11.0615 12.7993ZM7.91812 9.37698H6.41048C6.21915 9.37698 6.11665 9.47014 6.10299 9.65647L6.10141 9.70112V11.1635C6.10141 11.3642 6.19024 11.4717 6.36791 11.486L6.41048 11.4877H7.91812C8.11981 11.4877 8.22737 11.3936 8.24082 11.2053L8.24226 11.1635V9.70112C8.24226 9.49943 8.14814 9.39186 7.9599 9.37842L7.91812 9.37698ZM11.5591 9.37698H10.059C9.86297 9.37698 9.75797 9.47014 9.74397 9.65647L9.74236 9.70112V11.1635C9.74236 11.3642 9.83336 11.4717 10.0154 11.486L10.059 11.4877H11.5591C11.7608 11.4877 11.8683 11.3936 11.8818 11.2053L11.8832 11.1635V9.70112C11.8832 9.49943 11.7891 9.39186 11.6008 9.37842L11.5591 9.37698ZM7.91812 6.30141H6.41048C6.21915 6.30141 6.11665 6.39457 6.10299 6.5809L6.10141 6.62555V8.08795C6.10141 8.28861 6.19024 8.3961 6.36791 8.41044L6.41048 8.41209H7.91812C8.11981 8.41209 8.22737 8.31797 8.24082 8.12973L8.24226 8.08795V6.62555C8.24226 6.42386 8.14814 6.31629 7.9599 6.30285L7.91812 6.30141ZM11.5591 6.30141H10.059C9.86297 6.30141 9.75797 6.39457 9.74397 6.5809L9.74236 6.62555V8.08795C9.74236 8.28861 9.83336 8.3961 10.0154 8.41044L10.059 8.41209H11.5591C11.7608 8.41209 11.8683 8.31797 11.8818 8.12973L11.8832 8.08795V6.62555C11.8832 6.42386 11.7891 6.31629 11.6008 6.30285L11.5591 6.30141ZM7.91812 3.22582H6.41048C6.21915 3.22582 6.11665 3.31899 6.10299 3.50531L6.10141 3.54996V5.01236C6.10141 5.21303 6.19024 5.32053 6.36791 5.33487L6.41048 5.33652H7.91812C8.11981 5.33652 8.22737 5.24239 8.24082 5.05414L8.24226 5.01236V3.54996C8.24226 3.34828 8.14814 3.24071 7.9599 3.22726L7.91812 3.22582ZM11.5591 3.22582H10.059C9.86297 3.22582 9.75797 3.31899 9.74397 3.50531L9.74236 3.54996V5.01236C9.74236 5.21303 9.83336 5.32053 10.0154 5.33487L10.059 5.33652H11.5591C11.7608 5.33652 11.8683 5.24239 11.8818 5.05414L11.8832 5.01236V3.54996C11.8832 3.34828 11.7891 3.24071 11.6008 3.22726L11.5591 3.22582Z" fill="#3264FF"/>
</svg>
