<svg width="18" height="18" viewBox="0 0 18 18" fill="none" xmlns="http://www.w3.org/2000/svg">
<g clip-path="url(#clip0_134_2074)">
<path d="M8.99998 0.825108C8.31688 0.819767 7.63957 0.950775 7.00773 1.21046C6.37588 1.47014 5.8022 1.85328 5.32027 2.33744C4.83835 2.8216 4.45787 3.39705 4.20111 4.03009C3.94435 4.66313 3.81648 5.34103 3.82498 6.02411C3.82498 8.93561 6.66673 12.7816 8.99998 17.2501C11.3332 12.7824 14.175 8.93561 14.175 6.02411C14.1835 5.34103 14.0556 4.66313 13.7989 4.03009C13.5421 3.39705 13.1616 2.8216 12.6797 2.33744C12.1978 1.85328 11.6241 1.47014 10.9922 1.21046C10.3604 0.950775 9.68309 0.819767 8.99998 0.825108ZM8.99998 8.25011C8.55497 8.25011 8.11996 8.11815 7.74995 7.87091C7.37994 7.62368 7.09155 7.27228 6.92125 6.86115C6.75096 6.45001 6.7064 5.99761 6.79322 5.56116C6.88003 5.1247 7.09432 4.72379 7.40899 4.40912C7.72366 4.09445 8.12457 3.88016 8.56103 3.79334C8.99749 3.70652 9.44989 3.75108 9.86102 3.92138C10.2722 4.09168 10.6236 4.38006 10.8708 4.75008C11.118 5.12009 11.25 5.5551 11.25 6.00011C11.25 6.59685 11.0129 7.16914 10.591 7.5911C10.169 8.01306 9.59672 8.25011 8.99998 8.25011Z" fill="#3264FF"/>
</g>
<defs>
<clipPath id="clip0_134_2074">
<rect width="18" height="18" fill="white"/>
</clipPath>
</defs>
</svg>
