<svg width="18" height="18" viewBox="0 0 18 18" fill="none" xmlns="http://www.w3.org/2000/svg">
<path d="M13.4512 0.964294C13.8381 0.964294 14.1434 1.08742 14.367 1.33367C14.5747 1.56233 14.6859 1.86682 14.7008 2.24714L14.7025 2.33626V15.6638C14.7025 16.0809 14.5907 16.4138 14.367 16.6626C14.1594 16.8936 13.8813 17.0173 13.5328 17.0338L13.4512 17.0357H4.46562C4.07867 17.0357 3.77337 16.9113 3.54974 16.6626C3.34208 16.4316 3.23084 16.128 3.21601 15.7519L3.21429 15.6638V2.33626C3.21429 1.91412 3.32611 1.57992 3.54974 1.33367C3.7574 1.10501 4.03547 0.982512 4.38395 0.966179L4.46562 0.964294H13.4512ZM11.0615 12.7993H6.92308C6.75222 12.7993 6.61402 12.8508 6.50849 12.9538C6.41468 13.0454 6.36256 13.1657 6.35214 13.3149L6.35018 13.3722V15.8221H11.6345V13.3722C11.6345 13.1963 11.5829 13.0568 11.4799 12.9538C11.3883 12.8622 11.268 12.8113 11.1188 12.8012L11.0615 12.7993ZM7.91812 9.37692H6.41048C6.21915 9.37692 6.11665 9.47008 6.10299 9.65641L6.10141 9.70106V11.1635C6.10141 11.3641 6.19024 11.4716 6.36791 11.486L6.41048 11.4876H7.91812C8.11981 11.4876 8.22737 11.3935 8.24082 11.2053L8.24226 11.1635V9.70106C8.24226 9.49937 8.14814 9.3918 7.9599 9.37836L7.91812 9.37692ZM11.5591 9.37692H10.059C9.86297 9.37692 9.75797 9.47008 9.74397 9.65641L9.74236 9.70106V11.1635C9.74236 11.3641 9.83336 11.4716 10.0154 11.486L10.059 11.4876H11.5591C11.7608 11.4876 11.8683 11.3935 11.8818 11.2053L11.8832 11.1635V9.70106C11.8832 9.49937 11.7891 9.3918 11.6008 9.37836L11.5591 9.37692ZM7.91812 6.30135H6.41048C6.21915 6.30135 6.11665 6.39451 6.10299 6.58084L6.10141 6.62549V8.08789C6.10141 8.28855 6.19024 8.39604 6.36791 8.41038L6.41048 8.41203H7.91812C8.11981 8.41203 8.22737 8.31791 8.24082 8.12967L8.24226 8.08789V6.62549C8.24226 6.4238 8.14814 6.31623 7.9599 6.30279L7.91812 6.30135ZM11.5591 6.30135H10.059C9.86297 6.30135 9.75797 6.39451 9.74397 6.58084L9.74236 6.62549V8.08789C9.74236 8.28855 9.83336 8.39604 10.0154 8.41038L10.059 8.41203H11.5591C11.7608 8.41203 11.8683 8.31791 11.8818 8.12967L11.8832 8.08789V6.62549C11.8832 6.4238 11.7891 6.31623 11.6008 6.30279L11.5591 6.30135ZM7.91812 3.22576H6.41048C6.21915 3.22576 6.11665 3.31892 6.10299 3.50525L6.10141 3.5499V5.0123C6.10141 5.21297 6.19024 5.32047 6.36791 5.3348L6.41048 5.33646H7.91812C8.11981 5.33646 8.22737 5.24233 8.24082 5.05408L8.24226 5.0123V3.5499C8.24226 3.34821 8.14814 3.24065 7.9599 3.2272L7.91812 3.22576ZM11.5591 3.22576H10.059C9.86297 3.22576 9.75797 3.31892 9.74397 3.50525L9.74236 3.5499V5.0123C9.74236 5.21297 9.83336 5.32047 10.0154 5.3348L10.059 5.33646H11.5591C11.7608 5.33646 11.8683 5.24233 11.8818 5.05408L11.8832 5.0123V3.5499C11.8832 3.34821 11.7891 3.24065 11.6008 3.2272L11.5591 3.22576Z" fill="#FF6700"/>
</svg>
