<svg width="18" height="18" viewBox="0 0 18 18" fill="none" xmlns="http://www.w3.org/2000/svg">
<g clip-path="url(#clip0_188_2368)">
<path d="M8.99998 0.825C8.31688 0.81966 7.63957 0.950667 7.00773 1.21035C6.37588 1.47003 5.8022 1.85317 5.32027 2.33733C4.83835 2.82149 4.45787 3.39694 4.20111 4.02998C3.94435 4.66302 3.81648 5.34093 3.82498 6.024C3.82498 8.9355 6.66673 12.7815 8.99998 17.25C11.3332 12.7823 14.175 8.9355 14.175 6.024C14.1835 5.34093 14.0556 4.66302 13.7989 4.02998C13.5421 3.39694 13.1616 2.82149 12.6797 2.33733C12.1978 1.85317 11.6241 1.47003 10.9922 1.21035C10.3604 0.950667 9.68309 0.81966 8.99998 0.825ZM8.99998 8.25C8.55497 8.25 8.11996 8.11804 7.74995 7.87081C7.37994 7.62357 7.09155 7.27217 6.92125 6.86104C6.75096 6.4499 6.7064 5.9975 6.79322 5.56105C6.88003 5.12459 7.09432 4.72368 7.40899 4.40901C7.72366 4.09434 8.12457 3.88005 8.56103 3.79323C8.99749 3.70642 9.44989 3.75097 9.86102 3.92127C10.2722 4.09157 10.6236 4.37996 10.8708 4.74997C11.118 5.11998 11.25 5.55499 11.25 6C11.25 6.59674 11.0129 7.16903 10.591 7.59099C10.169 8.01295 9.59672 8.25 8.99998 8.25Z" fill="#004E98"/>
</g>
<defs>
<clipPath id="clip0_188_2368">
<rect width="18" height="18" fill="white"/>
</clipPath>
</defs>
</svg>
