<svg width="24" height="25" viewBox="0 0 24 25" fill="none" xmlns="http://www.w3.org/2000/svg">
<path d="M17.059 15.7212C17.5268 15.4017 18.0755 15.2213 18.6415 15.2006C19.2076 15.18 19.768 15.3201 20.2578 15.6046C20.7476 15.8892 21.1468 16.3066 21.4093 16.8086C21.6718 17.3105 21.7868 17.8766 21.741 18.4412C20.5412 18.8605 19.2668 19.0237 18 18.9202C17.9961 17.7868 17.6697 16.677 17.059 15.7222C16.5169 14.872 15.7691 14.1722 14.8848 13.6877C14.0005 13.2032 13.0083 12.9495 12 12.9502C10.9918 12.9497 9.99981 13.2034 9.11571 13.6879C8.23162 14.1725 7.48399 14.8721 6.94199 15.7222M17.999 18.9192L18 18.9502C18 19.1752 17.988 19.3972 17.963 19.6162C16.1483 20.6573 14.0921 21.2035 12 21.2002C9.82998 21.2002 7.79299 20.6242 6.03699 19.6162C6.01128 19.3848 5.99892 19.152 5.99999 18.9192M5.99999 18.9192C4.73361 19.0265 3.45989 18.8639 2.26099 18.4422C2.21534 17.8777 2.33038 17.3119 2.59281 16.8101C2.85525 16.3083 3.25435 15.891 3.74399 15.6065C4.23362 15.322 4.79378 15.1818 5.3597 15.2023C5.92563 15.2228 6.4742 15.403 6.94199 15.7222M5.99999 18.9192C6.00358 17.7859 6.33161 16.6771 6.94199 15.7222M15 6.9502C15 7.74584 14.6839 8.50891 14.1213 9.07152C13.5587 9.63413 12.7956 9.9502 12 9.9502C11.2043 9.9502 10.4413 9.63413 9.87866 9.07152C9.31606 8.50891 8.99999 7.74584 8.99999 6.9502C8.99999 6.15455 9.31606 5.39148 9.87866 4.82888C10.4413 4.26627 11.2043 3.9502 12 3.9502C12.7956 3.9502 13.5587 4.26627 14.1213 4.82888C14.6839 5.39148 15 6.15455 15 6.9502ZM21 9.9502C21 10.2457 20.9418 10.5383 20.8287 10.8112C20.7156 11.0842 20.5499 11.3323 20.341 11.5412C20.132 11.7501 19.884 11.9159 19.611 12.0289C19.338 12.142 19.0455 12.2002 18.75 12.2002C18.4545 12.2002 18.1619 12.142 17.8889 12.0289C17.616 11.9159 17.3679 11.7501 17.159 11.5412C16.9501 11.3323 16.7843 11.0842 16.6713 10.8112C16.5582 10.5383 16.5 10.2457 16.5 9.9502C16.5 9.35346 16.737 8.78116 17.159 8.35921C17.581 7.93725 18.1532 7.7002 18.75 7.7002C19.3467 7.7002 19.919 7.93725 20.341 8.35921C20.7629 8.78116 21 9.35346 21 9.9502ZM7.49999 9.9502C7.49999 10.2457 7.44179 10.5383 7.32871 10.8112C7.21564 11.0842 7.04991 11.3323 6.84098 11.5412C6.63204 11.7501 6.38401 11.9159 6.11102 12.0289C5.83804 12.142 5.54546 12.2002 5.24999 12.2002C4.95451 12.2002 4.66193 12.142 4.38895 12.0289C4.11596 11.9159 3.86793 11.7501 3.65899 11.5412C3.45006 11.3323 3.28433 11.0842 3.17126 10.8112C3.05818 10.5383 2.99999 10.2457 2.99999 9.9502C2.99999 9.35346 3.23704 8.78116 3.65899 8.35921C4.08095 7.93725 4.65325 7.7002 5.24999 7.7002C5.84672 7.7002 6.41902 7.93725 6.84098 8.35921C7.26293 8.78116 7.49999 9.35346 7.49999 9.9502Z" stroke="#3264FF" stroke-width="1.5" stroke-linecap="round" stroke-linejoin="round"/>
</svg>
