<svg width="25" height="24" viewBox="0 0 25 24" fill="none" xmlns="http://www.w3.org/2000/svg">
<path d="M2.75 15.75L7.909 10.591C8.11793 10.3821 8.36597 10.2163 8.63896 10.1033C8.91194 9.99018 9.20452 9.93198 9.5 9.93198C9.79548 9.93198 10.0881 9.99018 10.361 10.1033C10.634 10.2163 10.8821 10.3821 11.091 10.591L16.25 15.75M14.75 14.25L16.159 12.841C16.3679 12.6321 16.616 12.4663 16.889 12.3533C17.1619 12.2402 17.4545 12.182 17.75 12.182C18.0455 12.182 18.3381 12.2402 18.611 12.3533C18.884 12.4663 19.1321 12.6321 19.341 12.841L22.25 15.75M4.25 19.5H20.75C21.1478 19.5 21.5294 19.342 21.8107 19.0607C22.092 18.7794 22.25 18.3978 22.25 18V6C22.25 5.60218 22.092 5.22064 21.8107 4.93934C21.5294 4.65804 21.1478 4.5 20.75 4.5H4.25C3.85218 4.5 3.47064 4.65804 3.18934 4.93934C2.90804 5.22064 2.75 5.60218 2.75 6V18C2.75 18.3978 2.90804 18.7794 3.18934 19.0607C3.47064 19.342 3.85218 19.5 4.25 19.5ZM14.75 8.25H14.758V8.258H14.75V8.25ZM15.125 8.25C15.125 8.34946 15.0855 8.44484 15.0152 8.51517C14.9448 8.58549 14.8495 8.625 14.75 8.625C14.6505 8.625 14.5552 8.58549 14.4848 8.51517C14.4145 8.44484 14.375 8.34946 14.375 8.25C14.375 8.15054 14.4145 8.05516 14.4848 7.98484C14.5552 7.91451 14.6505 7.875 14.75 7.875C14.8495 7.875 14.9448 7.91451 15.0152 7.98484C15.0855 8.05516 15.125 8.15054 15.125 8.25Z" stroke="white" stroke-width="1.5" stroke-linecap="round" stroke-linejoin="round"/>
</svg>
