<svg width="16" height="16" viewBox="0 0 16 16" fill="none" xmlns="http://www.w3.org/2000/svg">
<path d="M10.3334 6.39992C10.2 4.53325 9.46671 2.73325 8.06671 1.33325C6.60004 2.73325 5.80004 4.59992 5.66671 6.39992C6.53337 6.86659 7.33337 7.46659 8.00004 8.19992C8.66671 7.46659 9.46671 6.86659 10.3334 6.39992ZM6.00004 8.19992C5.93337 8.13325 5.80004 8.06659 5.73337 7.99992C5.80004 8.06659 5.86671 8.13325 6.00004 8.19992ZM8.00004 10.2666C6.53337 8.13325 4.13337 6.66659 1.33337 6.66659C1.33337 10.1999 3.60004 13.1999 6.66671 14.3333C7.06671 14.4666 7.53337 14.5999 8.00004 14.6666C8.46671 14.5999 8.86671 14.4666 9.33337 14.3333C12.4667 13.1999 14.6667 10.1999 14.6667 6.66659C11.8667 6.66659 9.40004 8.13325 8.00004 10.2666Z" fill="#212121"/>
</svg>
