<svg width="16" height="16" viewBox="0 0 16 16" fill="none" xmlns="http://www.w3.org/2000/svg">
<path d="M14.6667 14C13.9334 14 13.5334 13.7333 13.2 13.6C12.9334 13.4667 12.8 13.3333 12.4667 13.3333C12.0667 13.3333 11.9334 13.4 11.7334 13.6C11.4 13.8 11 14 10.2667 14C9.53337 14 9.13337 13.7333 8.80004 13.6C8.53337 13.4 8.40004 13.3333 8.00004 13.3333C7.60004 13.3333 7.46671 13.4 7.20004 13.6C6.93337 13.7333 6.53337 14 5.80004 14C5.06671 14 4.66671 13.7333 4.33337 13.6C4.06671 13.4 3.93337 13.3333 3.53337 13.3333C3.13337 13.3333 3.00004 13.4 2.80004 13.6C2.46671 13.7333 2.06671 14 1.33337 14V12.6667C1.73337 12.6667 1.86671 12.6 2.06671 12.4C2.40004 12.2667 2.80004 12 3.53337 12C4.26671 12 4.66671 12.2667 5.00004 12.4C5.26671 12.6 5.40004 12.6667 5.80004 12.6667C6.20004 12.6667 6.33337 12.6 6.60004 12.4C6.86671 12.2667 7.26671 12 8.00004 12C8.73337 12 9.13337 12.2667 9.46671 12.4C9.73337 12.5333 9.86671 12.6667 10.2667 12.6667C10.6667 12.6667 10.8 12.6 11 12.4C11.2667 12.2 11.7334 12 12.4667 12C13.2 12 13.6 12.2667 13.9334 12.4C14.2 12.5333 14.3334 12.6667 14.6667 12.6667V14ZM14.6667 11C13.9334 11 13.5334 10.7333 13.2 10.6C12.9334 10.4667 12.8 10.3333 12.4667 10.3333C12.0667 10.3333 11.9334 10.4 11.7334 10.6C11.4 10.8 11 11 10.2667 11C9.53337 11 9.13337 10.7333 8.80004 10.6C8.53337 10.4667 8.40004 10.3333 8.06671 10.3333C7.66671 10.3333 7.53337 10.4 7.26671 10.6C7.00004 10.8 6.53337 11 5.80004 11C5.06671 11 4.66671 10.7333 4.33337 10.6C4.06671 10.4667 3.93337 10.3333 3.53337 10.3333C3.13337 10.3333 3.00004 10.4 2.80004 10.6C2.46671 10.8 2.06671 11 1.33337 11V9.66667C1.73337 9.66667 1.86671 9.6 2.06671 9.4C2.40004 9.2 2.80004 9 3.53337 9C4.26671 9 4.66671 9.26667 5.00004 9.4C5.26671 9.53333 5.40004 9.66667 5.73337 9.66667C6.13337 9.66667 6.26671 9.6 6.53337 9.4C6.86671 9.2 7.26671 9 8.00004 9C8.73337 9 9.13337 9.26667 9.46671 9.4C9.73337 9.53333 9.86671 9.66667 10.2 9.66667C10.6 9.66667 10.7334 9.6 11 9.4C11.2667 9.2 11.7334 9 12.4667 9C13.2 9 13.6 9.26667 13.9334 9.4C14.2 9.53333 14.3334 9.66667 14.6667 9.66667V11ZM5.80004 8C5.40004 8 5.26671 7.93333 5.00004 7.73333C4.86671 7.66667 4.73337 7.6 4.53337 7.46667L6.66671 5.33333L6.00004 4.66667C5.26671 3.93333 4.53337 3.66667 3.33337 3.66667V2C5.00004 2 5.93337 2.26667 7.00004 3.33333L11.2667 7.6C11.2 7.66667 11.0667 7.73333 11 7.73333C10.7334 7.93333 10.6 8 10.2 8C9.80004 8 9.66671 7.93333 9.40004 7.73333C9.13337 7.6 8.73337 7.33333 8.00004 7.33333C7.26671 7.33333 6.86671 7.6 6.53337 7.73333C6.26671 7.93333 6.13337 8 5.80004 8ZM11 5.33333C10.0667 5.33333 9.33337 4.6 9.33337 3.66667C9.33337 2.73333 10.0667 2 11 2C11.9334 2 12.6667 2.73333 12.6667 3.66667C12.6667 4.6 11.9334 5.33333 11 5.33333Z" fill="#212121"/>
</svg>
