<svg width="18" height="18" viewBox="0 0 18 18" fill="none" xmlns="http://www.w3.org/2000/svg">
<path d="M6.1875 14.0624C6.1875 14.3607 6.06897 14.6469 5.85799 14.8579C5.64702 15.0688 5.36087 15.1874 5.0625 15.1874C4.76413 15.1874 4.47798 15.0688 4.267 14.8579C4.05603 14.6469 3.9375 14.3607 3.9375 14.0624M6.1875 14.0624C6.1875 13.764 6.06897 13.4779 5.85799 13.2669C5.64702 13.0559 5.36087 12.9374 5.0625 12.9374C4.76413 12.9374 4.47798 13.0559 4.267 13.2669C4.05603 13.4779 3.9375 13.764 3.9375 14.0624M6.1875 14.0624H10.6875M3.9375 14.0624H2.53125C2.30747 14.0624 2.09286 13.9735 1.93463 13.8152C1.77639 13.657 1.6875 13.4424 1.6875 13.2186V10.6874M10.6875 14.0624H12.375M10.6875 14.0624V10.6874M1.6875 10.6874V4.96112C1.68631 4.75575 1.76135 4.55724 1.89809 4.404C2.03484 4.25077 2.22357 4.15372 2.42775 4.13162C4.92753 3.87214 7.44746 3.87214 9.94725 4.13162C10.371 4.17512 10.6875 4.53512 10.6875 4.96112V5.67962M1.6875 10.6874H10.6875M14.625 14.0624C14.625 14.3607 14.5065 14.6469 14.2955 14.8579C14.0845 15.0688 13.7984 15.1874 13.5 15.1874C13.2016 15.1874 12.9155 15.0688 12.7045 14.8579C12.4935 14.6469 12.375 14.3607 12.375 14.0624M14.625 14.0624C14.625 13.764 14.5065 13.4779 14.2955 13.2669C14.0845 13.0559 13.7984 12.9374 13.5 12.9374C13.2016 12.9374 12.9155 13.0559 12.7045 13.2669C12.4935 13.4779 12.375 13.764 12.375 14.0624M14.625 14.0624H15.4687C15.9345 14.0624 16.3155 13.6844 16.2862 13.2194C16.1355 10.7426 15.3014 8.35604 13.8765 6.32462C13.7408 6.13433 13.5636 5.97738 13.3583 5.86564C13.153 5.7539 12.925 5.69029 12.6915 5.67962H10.6875M10.6875 5.67962V10.6874" stroke="#212121" stroke-width="1.5" stroke-linecap="round" stroke-linejoin="round"/>
</svg>
