<svg width="18" height="18" viewBox="0 0 18 18" fill="none" xmlns="http://www.w3.org/2000/svg">
<path d="M12.45 10.5C12.3 10.425 11.325 9.97495 11.175 9.89995C11.025 9.82495 10.875 9.82495 10.725 9.97495C10.575 10.125 10.275 10.575 10.125 10.725C10.05 10.875 9.9 10.8749 9.75 10.7999C9.225 10.5749 8.7 10.275 8.25 9.89995C7.875 9.52495 7.5 9.07495 7.2 8.62495C7.125 8.47495 7.2 8.32495 7.275 8.24995C7.35 8.17495 7.425 8.02495 7.575 7.94995C7.65 7.87495 7.725 7.72495 7.725 7.64995C7.8 7.57495 7.8 7.42495 7.725 7.34995C7.65 7.27495 7.275 6.37495 7.125 5.99995C7.05 5.47495 6.9 5.47495 6.75 5.47495C6.675 5.47495 6.525 5.47495 6.375 5.47495C6.225 5.47495 6 5.62495 5.925 5.69995C5.475 6.14995 5.25 6.67495 5.25 7.27495C5.325 7.94995 5.55 8.62495 6 9.22495C6.825 10.425 7.875 11.4 9.15 12C9.525 12.15 9.825 12.3 10.2 12.375C10.575 12.525 10.95 12.525 11.4 12.45C11.925 12.375 12.375 11.9999 12.675 11.5499C12.825 11.2499 12.825 10.9499 12.75 10.65C12.75 10.65 12.6 10.575 12.45 10.5ZM14.325 3.67495C11.4 0.749951 6.675 0.749951 3.75 3.67495C1.35 6.07495 0.9 9.74995 2.55 12.6749L1.5 16.4999L5.475 15.45C6.6 16.05 7.8 16.3499 9 16.3499C13.125 16.3499 16.425 13.0499 16.425 8.92495C16.5 6.97495 15.675 5.09995 14.325 3.67495ZM12.3 14.1749C11.325 14.7749 10.2 15.15 9 15.15C7.875 15.15 6.825 14.85 5.85 14.325L5.625 14.1749L3.3 14.775L3.9 12.525L3.75 12.2999C1.95 9.29995 2.85 5.54995 5.775 3.67495C8.7 1.79995 12.45 2.77495 14.25 5.62495C16.05 8.54995 15.225 12.3749 12.3 14.1749Z" fill="white"/>
</svg>
