<svg width="24" height="25" viewBox="0 0 24 25" fill="none" xmlns="http://www.w3.org/2000/svg">
<path d="M2.25 7.3252C2.25 6.7042 2.754 6.2002 3.375 6.2002H9.375C9.996 6.2002 10.5 6.7042 10.5 7.3252V11.0752C10.5 11.6962 9.996 12.2002 9.375 12.2002H3.375C3.07663 12.2002 2.79048 12.0817 2.5795 11.8707C2.36853 11.6597 2.25 11.3736 2.25 11.0752V7.3252ZM14.25 8.8252C14.25 8.2042 14.754 7.7002 15.375 7.7002H20.625C21.246 7.7002 21.75 8.2042 21.75 8.8252V17.0752C21.75 17.6962 21.246 18.2002 20.625 18.2002H15.375C15.0766 18.2002 14.7905 18.0817 14.5795 17.8707C14.3685 17.6597 14.25 17.3736 14.25 17.0752V8.8252ZM3.75 16.3252C3.75 15.7042 4.254 15.2002 4.875 15.2002H10.125C10.746 15.2002 11.25 15.7042 11.25 16.3252V18.5752C11.25 19.1962 10.746 19.7002 10.125 19.7002H4.875C4.57663 19.7002 4.29048 19.5817 4.0795 19.3707C3.86853 19.1597 3.75 18.8736 3.75 18.5752V16.3252Z" stroke="#004E98" stroke-width="1.5" stroke-linecap="round" stroke-linejoin="round"/>
</svg>
