<svg width="38" height="46" viewBox="0 0 38 46" fill="none" xmlns="http://www.w3.org/2000/svg">
<path d="M23.5481 3.5382C23.5481 1.58411 25.1322 0 27.0863 0H32.9695C35.7043 0 37.9214 2.21704 37.9214 4.9519V10.8351C37.9214 12.7892 36.3373 14.3733 34.3832 14.3733V14.3733C32.4291 14.3733 30.845 12.7892 30.845 10.8351V10.7248C30.845 8.70987 29.2115 7.0764 27.1965 7.0764H27.0863C25.1322 7.0764 23.5481 5.49229 23.5481 3.5382V3.5382Z" fill="#3264FF"/>
<path d="M24.0437 24.041C21.2393 26.8522 16.6848 26.8522 13.8804 24.041C11.076 21.2366 11.076 16.689 13.8804 13.8777C16.6848 11.0733 21.2393 11.0733 24.0437 13.8777C26.848 16.689 26.848 21.2366 24.0437 24.041Z" fill="#FF5B00"/>
<path d="M27.3651 27.3685C22.721 32.0057 15.2036 32.0057 10.5595 27.3685C5.91537 22.7244 5.91537 15.2001 10.5595 10.556C11.9523 9.16323 13.6356 8.15692 15.4719 7.59512C17.3405 7.02343 18.9588 5.4923 18.9588 3.5382V3.5382C18.9588 1.58411 17.3613 -0.0334073 15.4409 0.327882C11.8193 1.00923 8.35689 2.75214 5.55019 5.55363C-1.85006 12.9608 -1.85006 24.9638 5.55019 32.3709L13.2458 40.0666C16.401 43.2218 21.5166 43.2218 24.6718 40.0666L32.3675 32.3709C35.1744 29.5692 36.9147 26.1038 37.5943 22.4803C37.9545 20.5597 36.337 18.9623 34.3829 18.9623V18.9623C32.4288 18.9623 30.8975 20.5806 30.3261 22.4492C29.7643 24.2863 28.758 25.9713 27.3651 27.3685Z" fill="#3264FF"/>
</svg>
