<svg width="208" height="40" viewBox="0 0 208 40" fill="none" xmlns="http://www.w3.org/2000/svg">
<path d="M20.4871 3.03843C20.4871 1.36035 21.8474 0 23.5255 0H28.5777C30.9263 0 32.8301 1.90389 32.8301 4.25245V9.30465C32.8301 10.9827 31.4698 12.3431 29.7917 12.3431C28.1136 12.3431 26.7533 10.9827 26.7533 9.30465V9.20997C26.7533 7.47961 25.3505 6.07687 23.6202 6.07687H23.5255C21.8474 6.07687 20.4871 4.71652 20.4871 3.03843Z" fill="#3264FF"/>
<path d="M20.9126 20.6453C18.5043 23.0594 14.5931 23.0594 12.1849 20.6453C9.7766 18.237 9.7766 14.3317 12.1849 11.9175C14.5931 9.50926 18.5043 9.50926 20.9126 11.9175C23.3209 14.3317 23.3209 18.237 20.9126 20.6453Z" fill="#FF5B00"/>
<path d="M23.7649 23.5028C19.7768 27.485 13.3212 27.485 9.3331 23.5028C5.34497 19.5146 5.34497 13.0531 9.3331 9.06501C10.5292 7.86894 11.9747 7.00476 13.5516 6.52232C15.1563 6.03138 16.5461 4.71652 16.5461 3.03843C16.5461 1.36035 15.1742 -0.0286885 13.525 0.281569C10.415 0.866676 7.44163 2.3634 5.03137 4.76919C-1.32361 11.1301 -1.32361 21.4377 5.03137 27.7986L11.64 34.4072C14.3495 37.1167 18.7426 37.1167 21.4521 34.4072L28.0607 27.7986C30.4712 25.3926 31.9656 22.4167 32.5493 19.305C32.8586 17.6557 31.4696 16.2839 29.7915 16.2839C28.1134 16.2839 26.7984 17.6736 26.3077 19.2783C25.8253 20.8559 24.9611 22.3029 23.7649 23.5028Z" fill="#3264FF"/>
<path d="M43.6969 29.6562H50.7931C53.9655 29.6562 56.47 28.7657 58.3067 26.9569C60.1434 25.1481 61.0617 22.6992 61.0617 19.5963C61.0617 18.1493 60.8252 16.8274 60.3521 15.603C59.879 14.3785 59.1972 13.335 58.3345 12.4723C57.4579 11.6096 56.3726 10.9278 55.0786 10.4408C53.7846 9.95385 52.3515 9.70339 50.7931 9.70339H43.6969V29.6562ZM48.2051 25.7464V13.6133H50.5983C51.3496 13.6133 52.0732 13.7385 52.7411 13.9611C53.4089 14.1837 54.0072 14.5316 54.5638 14.9908C55.1204 15.4499 55.5517 16.0761 55.8717 16.8553C56.1918 17.6484 56.3587 18.5667 56.3587 19.5963C56.3587 20.4868 56.2474 21.2799 56.0387 21.9757C55.8161 22.6853 55.5378 23.2697 55.176 23.7288C54.8143 24.2019 54.3829 24.5776 53.882 24.8837C53.3811 25.1898 52.8524 25.4124 52.3097 25.5516C51.7671 25.6907 51.1966 25.7464 50.5983 25.7464H48.2051ZM63.1906 22.2122C63.1906 23.701 63.5106 25.0368 64.1785 26.2334C64.8463 27.43 65.7508 28.3622 66.9196 29.0301C68.0883 29.698 69.3824 30.0319 70.8294 30.0319C72.8331 30.0319 74.5028 29.5728 75.8246 28.6405C77.1325 27.7083 77.9674 26.4421 78.3152 24.842H74.3219C74.0853 25.3568 73.6818 25.7881 73.0974 26.1221C72.513 26.4699 71.8173 26.6369 70.9964 26.6369C69.9667 26.6369 69.118 26.3308 68.464 25.7186C67.8101 25.1063 67.4483 24.3271 67.3787 23.3532H78.4544V22.0731C78.4544 21.0156 78.2874 20.0277 77.9535 19.0815C77.6195 18.1493 77.1604 17.3144 76.5481 16.5909C75.9359 15.8674 75.1428 15.2969 74.1688 14.8794C73.1948 14.462 72.1095 14.2394 70.9129 14.2394C68.6171 14.2394 66.7526 14.9908 65.3333 16.4657C63.9002 17.9406 63.1906 19.8607 63.1906 22.2122ZM67.4622 20.4173C67.5596 19.652 67.9353 18.998 68.5753 18.4415C69.2154 17.8849 69.9946 17.6066 70.9129 17.6066C71.873 17.6066 72.6661 17.871 73.2922 18.3997C73.9184 18.9285 74.2801 19.6103 74.3636 20.4173H67.4622ZM81.3763 36.2098H85.801V27.9448H86.0237C86.2184 28.2788 86.4689 28.5849 86.7889 28.8631C87.095 29.1553 87.5681 29.4197 88.1943 29.6702C88.8065 29.9206 89.5022 30.0319 90.2675 30.0319C92.285 30.0319 93.9269 29.2945 95.1931 27.8196C96.4453 26.3447 97.0854 24.4106 97.0854 22.0452C97.0854 19.6937 96.4453 17.8014 95.1652 16.3822C93.8851 14.9629 92.2154 14.2394 90.1561 14.2394C89.5718 14.2394 89.0152 14.3229 88.5143 14.462C88.0134 14.6012 87.5959 14.796 87.262 15.0186C86.9281 15.2551 86.6637 15.4778 86.4689 15.6726C86.2602 15.8813 86.0932 16.09 85.968 16.2848H85.7454V14.6151H81.3763V36.2098ZM85.7036 22.1287C85.7036 20.9877 86.0097 20.0555 86.6359 19.332C87.262 18.6084 88.0969 18.2328 89.1543 18.2328C90.184 18.2328 91.0049 18.5945 91.645 19.3041C92.285 20.0138 92.605 20.9599 92.605 22.1287C92.605 23.2975 92.285 24.2297 91.645 24.9533C91.0049 25.6768 90.1701 26.0386 89.1543 26.0386C88.1247 26.0386 87.3037 25.6907 86.6637 24.9811C86.0237 24.2715 85.7036 23.3253 85.7036 22.1287ZM99.1447 22.2122C99.1447 24.5776 99.7708 26.4699 101.051 27.8892C102.331 29.3223 104.001 30.0319 106.088 30.0319C106.672 30.0319 107.201 29.9624 107.702 29.8093C108.203 29.6702 108.606 29.4754 108.94 29.2388C109.274 29.0023 109.539 28.7797 109.747 28.5709C109.942 28.3762 110.109 28.1674 110.248 27.9448H110.485V29.6562H114.868V14.6151H110.457V16.3265H110.22C109.872 15.7978 109.344 15.3247 108.62 14.8934C107.897 14.462 107.02 14.2394 105.977 14.2394C103.945 14.2394 102.303 14.9768 101.037 16.4517C99.7708 17.9266 99.1447 19.8468 99.1447 22.2122ZM103.611 22.1287C103.611 20.9877 103.931 20.0416 104.571 19.3181C105.211 18.5945 106.032 18.2328 107.062 18.2328C108.078 18.2328 108.912 18.5945 109.566 19.3041C110.206 20.0138 110.54 20.9599 110.54 22.1287C110.54 23.2697 110.22 24.2019 109.594 24.9394C108.954 25.6768 108.119 26.0386 107.09 26.0386C106.046 26.0386 105.211 25.6907 104.571 24.9672C103.931 24.2437 103.611 23.2975 103.611 22.1287ZM118.11 29.6562H122.534V21.2243C122.534 20.4173 122.771 19.7355 123.244 19.1789C123.717 18.6223 124.329 18.3441 125.095 18.3441C125.832 18.3441 126.416 18.5945 126.862 19.0815C127.293 19.5685 127.516 20.2086 127.516 20.9877V29.6562H131.926V19.6242C131.926 18.038 131.439 16.7439 130.465 15.7421C129.491 14.7403 128.183 14.2394 126.542 14.2394C125.595 14.2394 124.761 14.4342 124.051 14.8238C123.341 15.2134 122.827 15.7004 122.506 16.2569H122.27V14.6151H118.11V29.6562ZM135.28 29.6562H139.621V17.9127H139.788L144.407 29.6562H148.025L152.185 18.3719H152.352V29.6562H156.707V9.70339H151.128L146.397 23.2418H146.23L140.845 9.70339H135.28V29.6562ZM159.671 22.2122C159.671 24.5776 160.297 26.4699 161.577 27.8892C162.857 29.3223 164.527 30.0319 166.614 30.0319C167.199 30.0319 167.727 29.9624 168.228 29.8093C168.729 29.6702 169.133 29.4754 169.467 29.2388C169.801 29.0023 170.065 28.7797 170.274 28.5709C170.468 28.3762 170.635 28.1674 170.775 27.9448H171.011V29.6562H175.394V14.6151H170.983V16.3265H170.747C170.399 15.7978 169.87 15.3247 169.147 14.8934C168.423 14.462 167.547 14.2394 166.503 14.2394C164.471 14.2394 162.83 14.9768 161.563 16.4517C160.297 17.9266 159.671 19.8468 159.671 22.2122ZM164.138 22.1287C164.138 20.9877 164.458 20.0416 165.098 19.3181C165.738 18.5945 166.559 18.2328 167.588 18.2328C168.604 18.2328 169.439 18.5945 170.093 19.3041C170.733 20.0138 171.067 20.9599 171.067 22.1287C171.067 23.2697 170.747 24.2019 170.121 24.9394C169.481 25.6768 168.646 26.0386 167.616 26.0386C166.573 26.0386 165.738 25.6907 165.098 24.9672C164.458 24.2437 164.138 23.2975 164.138 22.1287ZM177.815 18.0519H180.236V24.4385C180.236 26.0942 180.695 27.3743 181.614 28.2927C182.532 29.211 183.826 29.6562 185.482 29.6562H188.529V26.0107H186.595C185.955 26.0107 185.468 25.8577 185.134 25.5377C184.8 25.2316 184.647 24.7863 184.647 24.2158V18.0519H188.585V14.6151H184.647V10.5382H180.459V13.2932C180.459 13.7107 180.348 14.0307 180.139 14.2811C179.916 14.5316 179.624 14.6429 179.234 14.6429H177.815V18.0519ZM190.449 22.2122C190.449 24.5776 191.075 26.4699 192.355 27.8892C193.636 29.3223 195.305 30.0319 197.392 30.0319C197.977 30.0319 198.505 29.9624 199.006 29.8093C199.507 29.6702 199.911 29.4754 200.245 29.2388C200.579 29.0023 200.843 28.7797 201.052 28.5709C201.247 28.3762 201.414 28.1674 201.553 27.9448H201.789V29.6562H206.172V14.6151H201.761V16.3265H201.525C201.177 15.7978 200.648 15.3247 199.925 14.8934C199.201 14.462 198.325 14.2394 197.281 14.2394C195.25 14.2394 193.608 14.9768 192.341 16.4517C191.075 17.9266 190.449 19.8468 190.449 22.2122ZM194.916 22.1287C194.916 20.9877 195.236 20.0416 195.876 19.3181C196.516 18.5945 197.337 18.2328 198.366 18.2328C199.382 18.2328 200.217 18.5945 200.871 19.3041C201.511 20.0138 201.845 20.9599 201.845 22.1287C201.845 23.2697 201.525 24.2019 200.899 24.9394C200.259 25.6768 199.424 26.0386 198.394 26.0386C197.351 26.0386 196.516 25.6907 195.876 24.9672C195.236 24.2437 194.916 23.2975 194.916 22.1287Z" fill="#3264FF"/>
</svg>
