<svg width="202" height="46" viewBox="0 0 202 46" fill="none" xmlns="http://www.w3.org/2000/svg">
<path d="M23.548 3.5382C23.548 1.58411 25.1321 0 27.0862 0H32.9694C35.7043 0 37.9213 2.21704 37.9213 4.9519V10.8351C37.9213 12.7892 36.3372 14.3733 34.3831 14.3733V14.3733C32.429 14.3733 30.8449 12.7892 30.8449 10.8351V10.7248C30.8449 8.70987 29.2115 7.0764 27.1965 7.0764H27.0862C25.1321 7.0764 23.548 5.49229 23.548 3.5382V3.5382Z" fill="#202078"/>
<path d="M24.0436 24.041C21.2393 26.8522 16.6847 26.8522 13.8804 24.041C11.076 21.2366 11.076 16.689 13.8804 13.8777C16.6847 11.0733 21.2393 11.0733 24.0436 13.8777C26.848 16.689 26.848 21.2366 24.0436 24.041Z" fill="#FF5B00"/>
<path d="M27.3651 27.3685C22.721 32.0057 15.2036 32.0057 10.5595 27.3685C5.91537 22.7244 5.91537 15.2001 10.5595 10.556C11.9523 9.16323 13.6356 8.15692 15.4719 7.59512C17.3405 7.02343 18.9588 5.4923 18.9588 3.5382V3.5382C18.9588 1.58411 17.3613 -0.0334073 15.4409 0.327882C11.8193 1.00923 8.35689 2.75214 5.55019 5.55363C-1.85006 12.9608 -1.85006 24.9638 5.55019 32.3709L13.2458 40.0666C16.401 43.2218 21.5166 43.2218 24.6718 40.0666L32.3675 32.3709C35.1744 29.5692 36.9147 26.1038 37.5943 22.4803C37.9545 20.5597 36.337 18.9623 34.3829 18.9623V18.9623C32.4288 18.9623 30.8975 20.5806 30.3261 22.4492C29.7643 24.2863 28.758 25.9713 27.3651 27.3685Z" fill="#FF5B00"/>
<path d="M48.7282 10.6549L57.2833 33.8896H62.695L71.3149 10.6549H65.5467L60.1674 26.7928H59.9081L54.5612 10.6549H48.7282ZM70.5857 25.2212C70.5857 26.9549 70.9584 28.5103 71.7361 29.9038C72.5139 31.2972 73.5671 32.3828 74.9281 33.1605C76.2891 33.9383 77.796 34.3271 79.4811 34.3271C81.8142 34.3271 83.7586 33.7924 85.2978 32.7068C86.8209 31.6213 87.7931 30.1468 88.1981 28.2835H83.5479C83.2725 28.883 82.8026 29.3853 82.1221 29.7742C81.4416 30.1792 80.6314 30.3737 79.6755 30.3737C78.4765 30.3737 77.4881 30.0172 76.7266 29.3043C75.9651 28.5914 75.5438 27.684 75.4628 26.5498H88.3602V25.0592C88.3602 23.8277 88.1657 22.6773 87.7769 21.5756C87.388 20.49 86.8533 19.5178 86.1404 18.6753C85.4275 17.8327 84.5039 17.1684 83.3697 16.6823C82.2355 16.1963 80.9717 15.937 79.5783 15.937C76.9048 15.937 74.7336 16.812 73.081 18.5294C71.4121 20.2469 70.5857 22.4829 70.5857 25.2212ZM75.56 23.131C75.6734 22.2399 76.1109 21.4783 76.8562 20.8302C77.6015 20.1821 78.5089 19.8581 79.5783 19.8581C80.6963 19.8581 81.6198 20.1659 82.3489 20.7816C83.0781 21.3973 83.4993 22.1913 83.5966 23.131H75.56ZM91.7627 33.8896H96.9152V24.0708C96.9152 23.131 97.1907 22.3371 97.7415 21.689C98.2924 21.0409 99.0054 20.7168 99.8965 20.7168C100.755 20.7168 101.436 21.0085 101.954 21.5756C102.457 22.1427 102.716 22.888 102.716 23.7953V33.8896H107.852V22.2075C107.852 20.3604 107.285 18.8535 106.151 17.6869C105.017 16.5203 103.494 15.937 101.582 15.937C100.48 15.937 99.5076 16.1638 98.6813 16.6175C97.855 17.0712 97.2555 17.6383 96.8828 18.2864H96.6074V16.3745H91.7627V33.8896ZM111.562 28.0567C111.562 29.9038 112.13 31.4106 113.264 32.5772C114.398 33.7438 115.921 34.3271 117.833 34.3271C118.935 34.3271 119.891 34.1003 120.717 33.6304C121.543 33.1767 122.143 32.6096 122.516 31.9615H122.775V33.8896H127.652V16.3745H122.516V26.1933C122.516 27.1493 122.24 27.9432 121.689 28.5914C121.138 29.2395 120.409 29.5473 119.534 29.5473C118.659 29.5473 117.963 29.2719 117.46 28.7048C116.942 28.1377 116.699 27.3923 116.699 26.4526V16.3745H111.562V28.0567ZM131.686 28.3807C131.686 30.1144 132.156 31.4592 133.112 32.4314C134.068 33.4036 135.413 33.8896 137.163 33.8896H138.929V29.3691H138.297C137.325 29.3691 136.839 28.8506 136.839 27.7812V9.00223H131.686V28.3807ZM140.97 25.124C140.97 26.8415 141.359 28.3969 142.137 29.7904C142.915 31.1838 144.033 32.3018 145.475 33.1119C146.917 33.9221 148.553 34.3271 150.384 34.3271C151.761 34.3271 153.042 34.1003 154.224 33.6142C155.407 33.1443 156.412 32.4962 157.238 31.6699C158.048 30.8597 158.696 29.8876 159.15 28.7534C159.604 27.6192 159.847 26.4202 159.847 25.124C159.847 22.5153 158.956 20.328 157.206 18.5781C155.44 16.8282 153.171 15.937 150.417 15.937C149.023 15.937 147.727 16.18 146.544 16.6499C145.361 17.136 144.373 17.7841 143.563 18.5943C142.753 19.4206 142.105 20.3928 141.651 21.5108C141.197 22.6449 140.97 23.8439 140.97 25.124ZM146.172 25.124C146.172 23.7953 146.56 22.7098 147.354 21.8672C148.148 21.0247 149.153 20.5872 150.384 20.5872C151.616 20.5872 152.62 21.0247 153.43 21.8672C154.241 22.7098 154.646 23.7953 154.646 25.124C154.646 26.4526 154.241 27.5544 153.43 28.3969C152.62 29.2557 151.616 29.6769 150.384 29.6769C149.153 29.6769 148.148 29.2557 147.354 28.4131C146.56 27.5706 146.172 26.4688 146.172 25.124ZM163.217 33.8896H168.369V29.2071L170.686 26.6146L174.543 33.8896H180.311L174.235 22.6773L179.873 16.3745H173.538L168.564 22.3371H168.369V9.00223H163.217V33.8896ZM180.473 25.2212C180.473 27.9756 181.202 30.1792 182.693 31.8319C184.183 33.5008 186.128 34.3271 188.558 34.3271C189.238 34.3271 189.854 34.2461 190.437 34.0679C191.021 33.9059 191.491 33.679 191.879 33.4036C192.268 33.1281 192.576 32.8689 192.819 32.6258C193.046 32.399 193.241 32.156 193.403 31.8967H193.678V33.8896H198.782V16.3745H193.646V18.3674H193.37C192.965 17.7517 192.349 17.2008 191.507 16.6985C190.664 16.1963 189.644 15.937 188.428 15.937C186.063 15.937 184.151 16.7958 182.676 18.5132C181.202 20.2307 180.473 22.4667 180.473 25.2212ZM185.674 25.124C185.674 23.7953 186.047 22.6936 186.792 21.851C187.537 21.0085 188.493 20.5872 189.692 20.5872C190.875 20.5872 191.847 21.0085 192.609 21.8348C193.354 22.6611 193.743 23.7629 193.743 25.124C193.743 26.4526 193.37 27.5382 192.641 28.3969C191.896 29.2557 190.924 29.6769 189.725 29.6769C188.509 29.6769 187.537 29.2719 186.792 28.4293C186.047 27.5868 185.674 26.485 185.674 25.124Z" fill="#FF5B00"/>
</svg>
