<svg width="243" height="47" viewBox="0 0 243 47" fill="none" xmlns="http://www.w3.org/2000/svg">
  <path d="M23.548 4.31768C23.548 2.36358 25.1321 0.779476 27.0862 0.779476H32.9694C35.7043 0.779476 37.9213 2.99652 37.9213 5.73137V11.6146C37.9213 13.5687 36.3372 15.1528 34.3831 15.1528C32.429 15.1528 30.8449 13.5687 30.8449 11.6146V11.5043C30.8449 9.48934 29.2115 7.85588 27.1965 7.85588H27.0862C25.1321 7.85588 23.548 6.27177 23.548 4.31768Z" fill="#3264FF"/>
  <path d="M24.0436 24.8205C21.2392 27.6317 16.6847 27.6317 13.8803 24.8205C11.0759 22.0161 11.0759 17.4685 13.8803 14.6572C16.6847 11.8528 21.2392 11.8528 24.0436 14.6572C26.848 17.4685 26.848 22.0161 24.0436 24.8205Z" fill="#FF5B00"/>
  <path d="M27.3651 28.1481C22.721 32.7853 15.2036 32.7853 10.5595 28.1481C5.91537 23.504 5.91537 15.9797 10.5595 11.3356C11.9523 9.94278 13.6356 8.93647 15.4719 8.37467C17.3405 7.80299 18.9588 6.27185 18.9588 4.31776C18.9588 2.36366 17.3613 0.746147 15.4409 1.10744C11.8193 1.78878 8.35689 3.53169 5.55019 6.33318C-1.85006 13.7403 -1.85006 25.7433 5.55019 33.1505L13.2458 40.8461C16.401 44.0013 21.5166 44.0013 24.6718 40.8461L32.3675 33.1505C35.1744 30.3488 36.9147 26.8834 37.5943 23.2599C37.9545 21.3393 36.337 19.7418 34.3829 19.7418C32.4288 19.7418 30.8975 21.3601 30.3261 23.2288C29.7643 25.0658 28.758 26.7509 27.3651 28.1481Z" fill="#3264FF"/>
  <path d="M50.5754 34.6693H58.8388C62.533 34.6693 65.4495 33.6324 67.5883 31.526C69.7271 29.4196 70.7964 26.568 70.7964 22.9548C70.7964 21.2697 70.521 19.7304 69.9701 18.3046C69.4192 16.8787 68.6253 15.6635 67.6207 14.6589C66.5999 13.6544 65.3361 12.8604 63.8293 12.2933C62.3224 11.7262 60.6535 11.4346 58.8388 11.4346H50.5754V34.6693ZM55.8251 30.1164V15.9876H58.612C59.4869 15.9876 60.3295 16.1334 61.1072 16.3926C61.8849 16.6519 62.5817 17.057 63.2298 17.5916C63.8779 18.1263 64.3802 18.8555 64.7528 19.7628C65.1255 20.6864 65.3199 21.7557 65.3199 22.9548C65.3199 23.9917 65.1903 24.9153 64.9473 25.7254C64.688 26.5518 64.364 27.2323 63.9427 27.767C63.5214 28.3179 63.0191 28.7553 62.4358 29.1118C61.8525 29.4683 61.2368 29.7275 60.6049 29.8895C59.973 30.0516 59.3087 30.1164 58.612 30.1164H55.8251ZM73.2755 26.0009C73.2755 27.7346 73.6481 29.29 74.4259 30.6835C75.2036 32.0769 76.2568 33.1625 77.6178 33.9402C78.9788 34.7179 80.4857 35.1068 82.1708 35.1068C84.504 35.1068 86.4483 34.5721 87.9876 33.4865C89.5106 32.401 90.4828 30.9265 90.8878 29.0632H86.2377C85.9622 29.6627 85.4923 30.165 84.8118 30.5538C84.1313 30.9589 83.3212 31.1533 82.3652 31.1533C81.1662 31.1533 80.1778 30.7969 79.4163 30.084C78.6548 29.371 78.2335 28.4637 78.1525 27.3295H91.0499V25.8388C91.0499 24.6074 90.8554 23.457 90.4666 22.3552C90.0777 21.2697 89.543 20.2975 88.8301 19.455C88.1172 18.6124 87.1936 17.9481 86.0594 17.462C84.9252 16.9759 83.6614 16.7167 82.268 16.7167C79.5945 16.7167 77.4234 17.5916 75.7707 19.3091C74.1018 21.0266 73.2755 23.2626 73.2755 26.0009ZM78.2497 23.9107C78.3631 23.0196 78.8006 22.258 79.5459 21.6099C80.2913 20.9618 81.1986 20.6378 82.268 20.6378C83.386 20.6378 84.3095 20.9456 85.0387 21.5613C85.7678 22.177 86.1891 22.971 86.2863 23.9107H78.2497ZM94.4525 42.3008H99.6049V32.6764H99.8642C100.091 33.0653 100.383 33.4217 100.755 33.7458C101.112 34.086 101.663 34.3939 102.392 34.6855C103.105 34.9772 103.915 35.1068 104.806 35.1068C107.155 35.1068 109.067 34.2481 110.542 32.5306C112 30.8131 112.745 28.5609 112.745 25.8064C112.745 23.0682 112 20.8646 110.509 19.2119C109.019 17.5592 107.074 16.7167 104.676 16.7167C103.996 16.7167 103.348 16.8139 102.764 16.9759C102.181 17.138 101.695 17.3648 101.306 17.624C100.917 17.8995 100.609 18.1587 100.383 18.3856C100.14 18.6286 99.9452 18.8717 99.7994 19.0985H99.5401V17.1542H94.4525V42.3008ZM99.4915 25.9036C99.4915 24.575 99.848 23.4894 100.577 22.6469C101.306 21.8044 102.278 21.3669 103.51 21.3669C104.709 21.3669 105.665 21.7882 106.41 22.6145C107.155 23.4408 107.528 24.5426 107.528 25.9036C107.528 27.2647 107.155 28.3503 106.41 29.1928C105.665 30.0353 104.693 30.4566 103.51 30.4566C102.311 30.4566 101.355 30.0516 100.609 29.2252C99.8642 28.3989 99.4915 27.2971 99.4915 25.9036ZM115.143 26.0009C115.143 28.7553 115.872 30.9589 117.363 32.6116C118.854 34.2805 120.798 35.1068 123.229 35.1068C123.909 35.1068 124.525 35.0258 125.108 34.8476C125.691 34.6855 126.161 34.4587 126.55 34.1833C126.939 33.9078 127.247 33.6486 127.49 33.4055C127.717 33.1787 127.911 32.9356 128.073 32.6764H128.349V34.6693H133.452V17.1542H128.316V19.1471H128.041C127.636 18.5314 127.02 17.9805 126.177 17.4782C125.335 16.9759 124.314 16.7167 123.099 16.7167C120.733 16.7167 118.821 17.5754 117.347 19.2929C115.872 21.0104 115.143 23.2464 115.143 26.0009ZM120.344 25.9036C120.344 24.575 120.717 23.4732 121.462 22.6307C122.208 21.7882 123.164 21.3669 124.363 21.3669C125.546 21.3669 126.518 21.7882 127.279 22.6145C128.025 23.4408 128.413 24.5426 128.413 25.9036C128.413 27.2323 128.041 28.3179 127.312 29.1766C126.566 30.0353 125.594 30.4566 124.395 30.4566C123.18 30.4566 122.208 30.0516 121.462 29.209C120.717 28.3665 120.344 27.2647 120.344 25.9036ZM137.228 34.6693H142.38V24.8505C142.38 23.9107 142.656 23.1168 143.207 22.4687C143.757 21.8206 144.47 21.4965 145.361 21.4965C146.22 21.4965 146.901 21.7882 147.419 22.3552C147.922 22.9223 148.181 23.6677 148.181 24.575V34.6693H153.317V22.9872C153.317 21.14 152.75 19.6332 151.616 18.4666C150.482 17.3 148.958 16.7167 147.047 16.7167C145.945 16.7167 144.973 16.9435 144.146 17.3972C143.32 17.8509 142.72 18.418 142.348 19.0661H142.072V17.1542H137.228V34.6693ZM157.222 34.6693H162.277V20.9942H162.472L167.851 34.6693H172.064L176.908 21.5289H177.103V34.6693H182.174V11.4346H175.677L170.168 27.1999H169.973L163.703 11.4346H157.222V34.6693ZM185.625 26.0009C185.625 28.7553 186.354 30.9589 187.845 32.6116C189.336 34.2805 191.28 35.1068 193.71 35.1068C194.391 35.1068 195.007 35.0258 195.59 34.8476C196.173 34.6855 196.643 34.4587 197.032 34.1833C197.421 33.9078 197.729 33.6486 197.972 33.4055C198.199 33.1787 198.393 32.9356 198.555 32.6764H198.831V34.6693H203.934V17.1542H198.798V19.1471H198.523C198.118 18.5314 197.502 17.9805 196.659 17.4782C195.817 16.9759 194.796 16.7167 193.581 16.7167C191.215 16.7167 189.303 17.5754 187.829 19.2929C186.354 21.0104 185.625 23.2464 185.625 26.0009ZM190.826 25.9036C190.826 24.575 191.199 23.4732 191.944 22.6307C192.69 21.7882 193.646 21.3669 194.845 21.3669C196.027 21.3669 197 21.7882 197.761 22.6145C198.506 23.4408 198.895 24.5426 198.895 25.9036C198.895 27.2323 198.523 28.3179 197.794 29.1766C197.048 30.0353 196.076 30.4566 194.877 30.4566C193.662 30.4566 192.69 30.0516 191.944 29.209C191.199 28.3665 190.826 27.2647 190.826 25.9036ZM206.754 21.1562H209.573V28.5933C209.573 30.5214 210.108 32.0121 211.177 33.0815C212.246 34.1508 213.753 34.6693 215.681 34.6693H219.23V30.4242H216.978C216.232 30.4242 215.665 30.246 215.276 29.8733C214.887 29.5169 214.709 28.9984 214.709 28.3341V21.1562H219.295V17.1542H214.709V12.4068H209.832V15.6149C209.832 16.101 209.703 16.4737 209.46 16.7653C209.2 17.057 208.86 17.1866 208.406 17.1866H206.754V21.1562ZM221.466 26.0009C221.466 28.7553 222.195 30.9589 223.686 32.6116C225.176 34.2805 227.121 35.1068 229.551 35.1068C230.231 35.1068 230.847 35.0258 231.43 34.8476C232.014 34.6855 232.484 34.4587 232.872 34.1833C233.261 33.9078 233.569 33.6486 233.812 33.4055C234.039 33.1787 234.234 32.9356 234.396 32.6764H234.671V34.6693H239.775V17.1542H234.639V19.1471H234.363C233.958 18.5314 233.342 17.9805 232.5 17.4782C231.657 16.9759 230.637 16.7167 229.421 16.7167C227.056 16.7167 225.144 17.5754 223.669 19.2929C222.195 21.0104 221.466 23.2464 221.466 26.0009ZM226.667 25.9036C226.667 24.575 227.04 23.4732 227.785 22.6307C228.53 21.7882 229.486 21.3669 230.685 21.3669C231.868 21.3669 232.84 21.7882 233.602 22.6145C234.347 23.4408 234.736 24.5426 234.736 25.9036C234.736 27.2323 234.363 28.3179 233.634 29.1766C232.889 30.0353 231.917 30.4566 230.718 30.4566C229.502 30.4566 228.53 30.0516 227.785 29.209C227.04 28.3665 226.667 27.2647 226.667 25.9036Z" fill="#212121"/>
</svg>
